<svg xmlns="http://www.w3.org/2000/svg" id="icon-3" viewBox="0 0 93.77 82.14">
	
		<defs><style>.cls-1,.cls-3{fill:#fff;}.cls-2{fill:#c9675f;}.cls-3{fill-rule:evenodd;}</style></defs>

			<g id="Layer_2" data-name="Layer 2"><g id="hex-back"><path class="cls-1" d="M65.43,0H28.35a10,10,0,0,0-8.62,4.92L1.39,36a10,10,0,0,0,0,10.17L19.73,77.22a10,10,0,0,0,8.62,4.92H65.43A10,10,0,0,0,74,77.22L92.38,46.15a10,10,0,0,0,0-10.17L74,4.92A10,10,0,0,0,65.43,0Z"/></g><g id="hex-front"><path class="cls-2" d="M62.93,4.23H30.85a10,10,0,0,0-8.62,4.92L6.39,36a10,10,0,0,0,0,10.17L22.23,73a10,10,0,0,0,8.62,4.91H62.93A10,10,0,0,0,71.54,73L87.38,46.15a10,10,0,0,0,0-10.17L71.54,9.15A10,10,0,0,0,62.93,4.23Z"/></g><g id="logo-s"><g id="S"><path class="cls-3" d="M49.35,37.93c-5-1.53-9.93-2.74-9.93-6.42,0-3.08,3-5.17,7.31-5.17,4.18,0,7.86,2.42,8.75,6.71l.29-.08a3,3,0,0,0,5.36-1.45l.26-.07C59.94,25.3,54.25,21.07,47,21.07c-8,0-13.89,4.78-13.89,10.77,0,6.7,6.19,8.84,10.76,10.38C49.4,44,55.42,45,55.42,49.8c0,3.3-2.9,5.83-7.86,5.83-5.63,0-9-3.57-9.75-7.58l-.1,0a3,3,0,0,0-5.83,1,3.68,3.68,0,0,0,.06.58h0c1.67,6.7,7.13,11.43,15.44,11.43,8.7,0,14.55-4.84,14.55-11.49C61.89,42.39,54.92,39.69,49.35,37.93Z"/>
			</g></g></g>
</svg>